# xmcd
#
# Track frame offsets:
#	150
#	30685
#	45644
#	61411
#	79414
#	98065
#	113568
#	137402
#	155712
#	172106
#	186376
#
# Disc length: 2890 seconds
#
# Revision: 0
# Processed by: cddbd v1.5.2PL0 Copyright (c) Steve Scherf et al.
# Submitted via: dBpowerAMP V4.0
#
DISCID=930b480b
DTITLE=Crystal Gayle and Gary Morris - What If We Fall In Love
DYEAR=1987
DGENRE=Country
TTITLE0=Reminisce
TTITLE1=Making Up For Lost Time
TTITLE2=Another World
TTITLE3=What If We Fall in Love
TTITLE4=Who's Going to Love Me Like Me 
TTITLE5=Love Don't Let Me Quit
TTITLE6=One More Try for Love
TTITLE7=There's No Love Like Our Love
TTITLE8=All of This and More
TTITLE9=Wanna Give My Love 
TTITLE10=Reminisce (Repeat)
EXTD=
EXTT0=
EXTT1=
EXTT2=
EXTT3=
EXTT4=
EXTT5=
EXTT6=
EXTT7=
EXTT8=
EXTT9=
EXTT10=
PLAYORDER=
